<?xml version="1.0" encoding="utf-8"?>
<!-- Generator: Adobe Illustrator 16.0.0, SVG Export Plug-In . SVG Version: 6.00 Build 0)  -->
<!DOCTYPE svg PUBLIC "-//W3C//DTD SVG 1.1//EN" "http://www.w3.org/Graphics/SVG/1.1/DTD/svg11.dtd">
<svg version="1.1" id="Capa_1" xmlns="http://www.w3.org/2000/svg" xmlns:xlink="http://www.w3.org/1999/xlink" x="0px" y="0px"
	 width="384.234px" height="385px" viewBox="0 0 384.234 385" enable-background="new 0 0 384.234 385" xml:space="preserve">
<g>
	<g>
		<path fill="#046060" d="M120.012,173.205c-0.776,0-5.957-5.955-15.54-17.867c-9.585-11.91-17.48-22.077-23.685-30.499
			c-0.888-1.218-3.713-5.262-8.476-12.133c-6.981-10.193-11.302-16.343-12.964-18.449l-0.333,12.798l-0.166,12.466
			c0,7.868-0.083,16.399-0.25,25.596c-0.166,9.198-0.361,16.512-0.582,21.939c-0.112,1.329-0.693,2.55-1.745,3.656
			c-1.054,1.109-2.135,1.662-3.241,1.662c-1.22,0-2.078-0.358-2.576-1.08c-0.499-0.72-0.748-2.133-0.748-4.238
			c0-1.33,0.221-5.428,0.665-12.3c0.997-12.74,1.496-23.435,1.496-32.078c0-6.868,0.109-13.379,0.332-19.528
			c0.221-6.15,0.333-9.944,0.333-11.386l0.167-4.819v-0.499c0-1.218,0.192-2.187,0.582-2.908c0.387-0.72,1.189-1.081,2.41-1.081
			h0.831c1.218,0,3.628,2.189,7.23,6.565c3.599,4.379,8.17,10.333,13.712,17.867c1.218,1.553,2.381,3.075,3.49,4.57
			c1.106,1.496,2.161,2.909,3.158,4.238c6.316,8.09,9.64,12.356,9.973,12.798c15.732,20.057,24.32,31.471,25.762,34.239
			c-0.223-0.886-0.61-2.935-1.164-6.15c-0.556-3.212-1.08-7.422-1.579-12.631c-0.499-5.207-0.748-10.581-0.748-16.122
			c0-9.861-0.943-22.88-2.826-39.059c-0.556-5.319-0.831-8.586-0.831-9.807c0-4.21,2.381-6.315,7.147-6.315
			c1.106,0,1.938,1.138,2.493,3.407c0.553,2.272,0.94,7.063,1.164,14.377c0.221,7.313,0.332,19.004,0.332,35.069
			c0,5.098,0.192,10.084,0.582,14.959c0.387,4.877,0.748,9.198,1.08,12.964c0.553,5.209,0.831,9.141,0.831,11.801l0.167,5.983
			C126.494,172.54,124.333,173.205,120.012,173.205z"/>
		<path fill="#046060" d="M163.557,70.822c0,0-1.828,0-5.485,0c-1.886,0-3.797-0.774-5.734-2.327
			c-1.94-1.551-2.909-2.825-2.909-3.823c0-1.218,0.582-2.381,1.746-3.49c1.163-1.106,2.353-1.662,3.573-1.662
			c1.662,0.556,3.046,1.441,4.155,2.66c0.885,0.888,1.883,2.051,2.992,3.49c1.105,1.441,1.662,2.326,1.662,2.659
			C163.557,69.991,163.557,70.822,163.557,70.822z M166.299,175.449c-0.943,0.607-2.023,0.856-3.242,0.747
			c-1.553-0.111-2.688-2.604-3.406-7.479c-0.723-4.875-1.471-14.128-2.244-27.757c-0.444-8.976-0.831-17.756-1.164-26.344
			c-0.332-8.586-0.556-15.208-0.665-19.861c0-1.218,0.192-2.133,0.582-2.742c0.387-0.608,1.135-0.915,2.245-0.915
			c2.547,0,4.154,1.055,4.818,3.158c0.666,2.106,0.998,6.149,0.998,12.133l-0.166,19.612c0,11.193,0.332,20.169,0.998,26.926
			c0,0.333,0.498,3.88,1.494,10.638c0.775,4.653,1.164,7.757,1.164,9.308C167.711,173.978,167.238,174.838,166.299,175.449z"/>
		<path fill="#046060" d="M244.165,176.944c-1.109,0.94-2.438,1.413-3.989,1.413c-1.108,0-2.052-0.249-2.825-0.748
			c-0.776-0.498-1.164-1.191-1.164-2.077c0-4.542,0.333-11.577,0.998-21.108c0.664-10.193,0.997-18.67,0.997-25.43
			c0-6.537-0.195-11.884-0.582-16.039c-0.39-4.155-1.304-6.232-2.742-6.232c-3.769,0-7.895,4.682-12.383,14.044
			c-4.487,9.365-9.613,21.69-15.374,36.981l-2.493,6.648c-0.443,1.108-1.191,1.994-2.243,2.659
			c-1.055,0.665-2.135,0.997-3.241,0.997c-1.33,0-2.218-0.109-2.659-0.332c-0.444-0.221-0.722-0.886-0.831-1.995l-1.331-13.629
			l-2.493-23.934c-0.776-9.528-1.719-17.839-2.825-24.931c-0.332-1.662-0.498-2.935-0.498-3.823c0-1.662,0.719-3.018,2.16-4.072
			c1.438-1.052,3.101-1.578,4.987-1.578c1.106,0,1.911,2.659,2.41,7.978c0.498,5.318,1.023,13.906,1.579,25.762l0.664,8.809
			c0.886,11.193,1.385,18.283,1.496,21.275c0.333-0.665,0.637-1.413,0.914-2.244c0.275-0.831,0.637-1.745,1.08-2.742
			c5.984-15.512,11.606-28.447,16.87-38.81c5.262-10.359,10.331-15.54,15.208-15.54c3.434,0,5.789,2.908,7.063,8.726
			c1.272,5.817,2.078,13.271,2.41,22.354c0.333,10.085,0.499,24.822,0.499,44.211C245.827,174.867,245.271,176.001,244.165,176.944z
			"/>
		<path fill="#046060" d="M335.41,164.146c0.774,0.831,1.164,1.524,1.164,2.078c0,1.329-0.557,2.854-1.662,4.57
			c-1.109,1.717-2.218,2.576-3.324,2.576c-1.886,0-3.324-1.163-4.321-3.49c-0.998-2.327-1.496-5.041-1.496-8.144
			c0-2.66,0.166-10.638,0.498-23.935l0.167-6.315c0-2.548-0.665-4.376-1.995-5.485c-4.986,8.422-9.64,15.735-13.961,21.939
			c-4.321,6.207-9.807,12.05-16.454,17.535c-6.648,5.484-13.629,8.228-20.942,8.228c-3.547,0-6.29-1.109-8.228-3.324
			c-1.939-2.216-2.908-5.096-2.908-8.643c0-4.431,1.994-10.497,5.983-18.2c3.989-7.7,9.084-15.512,15.291-23.436
			c6.204-7.92,12.408-14.431,18.615-19.528c4.098-3.324,7.367-5.568,9.806-6.731c2.437-1.164,4.597-1.745,6.482-1.745
			c1.771,0,3.6,0.556,5.484,1.662c1.883,1.108,3.49,2.659,4.82,4.653s1.994,4.267,1.994,6.814c0,3.436-0.942,6.705-2.825,9.807
			l2.825-0.831c1.219,0,1.938,1.495,2.161,4.487c0.109,1.773,0.249,5.376,0.415,10.803c0.167,5.431,0.305,9.919,0.416,13.463
			c0.109,3.657,0.221,7.204,0.332,10.638c0.109,3.436,0.221,6.149,0.333,8.145C334.189,162.513,334.633,163.315,335.41,164.146z
			 M292.695,158.08c5.539-4.431,10.497-9.723,14.876-15.872c4.375-6.15,9.224-13.713,14.543-22.688
			c1.329-3.324,1.994-6.924,1.994-10.804c0-2.327-0.693-4.348-2.077-6.066c-1.388-1.717-3.241-2.576-5.568-2.576
			c-2.771,0-6.315,1.886-10.637,5.651c-4.986,4.212-10.251,9.834-15.79,16.869c-5.542,7.038-10.139,13.99-13.795,20.859
			c-3.656,6.872-5.485,12.3-5.485,16.288c0,3.324,1.551,4.986,4.654,4.986C281.393,164.728,287.153,162.513,292.695,158.08z"/>
	</g>
	<g>
		<path fill="#046060" d="M117.27,316.565c-1.275,0.888-2.799,1.387-4.571,1.495l-28.587,2.161l-19.778,1.662l-10.305,0.831
			c-0.888,0-1.691-0.554-2.41-1.662c-0.722-1.106-1.08-2.161-1.08-3.158c0-0.773,0.249-1.355,0.748-1.745
			c0.499-0.387,1.052-0.665,1.662-0.831c0.608-0.166,1.023-0.304,1.247-0.415c0.109-5.983,0.166-19.945,0.166-41.885
			c0-16.176-0.639-28.725-1.911-37.646c-1.275-8.918-1.911-13.712-1.911-14.377c0-1.55,0.582-2.768,1.745-3.656
			c1.163-0.886,2.353-1.33,3.573-1.33c0.774,0,1.384,0.307,1.828,0.915c0.441,0.609,0.774,1.578,0.998,2.908
			c1.106,3.769,1.966,10.694,2.576,20.775c0.607,10.084,0.914,20.61,0.914,31.579c0,9.308-0.057,17.95-0.167,25.929
			c-0.111,7.978-0.166,13.354-0.166,16.122c1.439-0.109,4.209-0.304,8.311-0.582c4.098-0.275,8.31-0.581,12.631-0.914
			c6.425-0.773,13.684-1.938,21.773-3.49c6.537-1.218,10.471-1.828,11.801-1.828c1.218,0,1.995,0.556,2.327,1.662
			c0.333,1.108,0.499,2.438,0.499,3.989C119.181,314.515,118.542,315.679,117.27,316.565z"/>
		<path fill="#046060" d="M203.946,285.484c0,1.994-1.47,6.373-4.404,13.131c-2.938,6.76-7.371,13.021-13.297,18.781
			c-5.929,5.763-13.213,8.643-21.855,8.643c-7.093,0-13.021-2.216-17.785-6.648c-4.765-4.431-7.146-11.245-7.146-20.443
			c0-8.643,1.994-17.202,5.983-25.679c3.989-8.477,9.196-15.4,15.624-20.776c6.425-5.373,13.073-8.061,19.944-8.061
			c4.098,0,7.563,0.914,10.388,2.742c2.826,1.828,4.239,4.462,4.239,7.895c0,3.88-2.19,7.646-6.565,11.303
			c-4.379,3.656-10.056,6.871-17.036,9.64c-6.981,2.771-14.186,4.766-21.607,5.983c-1.33,5.098-1.994,10.084-1.994,14.959
			c0,6.427,1.521,11.413,4.57,14.958c3.046,3.548,7.396,5.318,13.048,5.318c8.53,0,15.457-3.046,20.775-9.141
			c5.318-6.093,9.75-12.964,13.297-20.61c0.221-0.441,0.607-1.301,1.163-2.576c0.553-1.272,1.052-1.911,1.496-1.911
			C203.556,282.991,203.946,283.822,203.946,285.484z M185.413,252.742c-1.828-0.998-3.963-1.496-6.398-1.496
			c-4.213,0-8.256,1.387-12.133,4.155c-3.88,2.771-7.121,6.095-9.724,9.972c-2.604,3.88-4.295,7.313-5.069,10.305
			c5.095-0.553,10.471-1.994,16.122-4.321c5.651-2.326,10.388-4.874,14.211-7.646c3.822-2.768,5.733-5.04,5.733-6.814
			C188.155,255.125,187.241,253.739,185.413,252.742z"/>
		<path fill="#046060" d="M293.695,317.146c0.774,0.831,1.164,1.524,1.164,2.078c0,1.329-0.557,2.854-1.662,4.57
			c-1.109,1.717-2.218,2.576-3.324,2.576c-1.886,0-3.324-1.163-4.321-3.49c-0.998-2.327-1.496-5.041-1.496-8.144
			c0-2.66,0.166-10.638,0.498-23.935l0.167-6.315c0-2.548-0.665-4.376-1.995-5.485c-4.986,8.422-9.64,15.735-13.961,21.939
			c-4.321,6.207-9.807,12.05-16.454,17.535c-6.648,5.484-13.629,8.228-20.942,8.228c-3.547,0-6.29-1.109-8.228-3.324
			c-1.939-2.216-2.908-5.096-2.908-8.643c0-4.431,1.994-10.497,5.983-18.2c3.989-7.7,9.084-15.512,15.291-23.436
			c6.204-7.92,12.408-14.431,18.615-19.528c4.098-3.324,7.367-5.568,9.806-6.731c2.437-1.164,4.597-1.745,6.482-1.745
			c1.771,0,3.6,0.556,5.484,1.662c1.883,1.108,3.49,2.659,4.82,4.653s1.994,4.267,1.994,6.814c0,3.436-0.942,6.705-2.825,9.807
			l2.825-0.831c1.219,0,1.938,1.495,2.161,4.487c0.109,1.773,0.249,5.376,0.415,10.803c0.167,5.431,0.305,9.919,0.416,13.463
			c0.109,3.657,0.221,7.204,0.332,10.638c0.109,3.436,0.221,6.149,0.333,8.145C292.474,315.513,292.918,316.315,293.695,317.146z
			 M250.98,311.08c5.539-4.431,10.497-9.723,14.876-15.872c4.375-6.15,9.224-13.713,14.543-22.688
			c1.329-3.324,1.994-6.924,1.994-10.804c0-2.327-0.693-4.348-2.077-6.066c-1.388-1.717-3.241-2.576-5.568-2.576
			c-2.771,0-6.315,1.886-10.637,5.651c-4.986,4.212-10.251,9.834-15.79,16.869c-5.542,7.038-10.139,13.99-13.795,20.859
			c-3.656,6.872-5.485,12.3-5.485,16.288c0,3.324,1.551,4.986,4.654,4.986C239.678,317.728,245.438,315.513,250.98,311.08z"/>
		<path fill="#046060" d="M331.921,323.545c-1.441,0.665-3.049,0.997-4.819,0.997c-1.33,0-2.576-1.579-3.74-4.737
			c-1.163-3.157-1.745-7.949-1.745-14.376c0.109-12.521,0.304-27.646,0.582-45.375c0.275-17.727,0.524-31.08,0.748-40.056
			c0.108-3.212,0.69-6.204,1.745-8.975c1.052-2.769,2.908-4.155,5.567-4.155c0.886,0,1.468,0.473,1.745,1.412
			c0.275,0.943,0.416,2.743,0.416,5.402c0,0.111-0.028,0.473-0.083,1.08c-0.058,0.61-0.083,1.69-0.083,3.241
			c-1.995,29.143-2.992,57.564-2.992,85.264c0,3.548,0.803,7.313,2.41,11.302c1.604,3.989,2.41,6.096,2.41,6.316
			C334.083,321.995,333.361,322.88,331.921,323.545z"/>
	</g>
</g>
<g>
	<path fill="#046060" d="M380.375,3.843c2.233,0.035,1.432-0.019,1.767-0.021C378.407,3.771,380.469,3.859,380.375,3.843z"/>
	<polygon fill="#046060" points="343.525,3.677 344.177,3.632 338.745,3.723 	"/>
	<path fill="#046060" d="M309.066,3.462c3.257,0.32,12.485,0.018,18.625,0.161l1.013,0.063l2.77-0.184
		C324.011,3.471,314.32,3.575,309.066,3.462z"/>
	<path fill="#046060" d="M290.692,2.584c1.134,0.152-3.975,0.078,4.285,0.089c-0.415-0.023-0.535-0.029-0.776-0.042
		C293.458,2.621,292.434,2.608,290.692,2.584z"/>
	<path fill="#046060" d="M294.201,2.631C297.83,2.662,291.826,2.49,294.201,2.631L294.201,2.631z"/>
	<path fill="#046060" d="M277.441,2.542l4.78-0.087c-0.998-0.097-5.254-0.165-3.672-0.212C273.645,2.26,274.654,2.367,277.441,2.542
		z"/>
	<path fill="#046060" d="M272.909,2.792l2.478-0.039C274.953,2.712,274.297,2.692,272.909,2.792z"/>
	<path fill="#046060" d="M280.64,2.677l-5.254,0.077c0.692,0.07,0.766,0.197,2.412-0.024C277.369,2.842,278.407,2.737,280.64,2.677z
		"/>
	<path fill="#046060" d="M283.613,2.76c2.682,0.107,6.146,0.183,1.349,0.274C294.106,3.051,292.758,2.797,283.613,2.76z"/>
	<path fill="#046060" d="M307.306,3.778l3.585,0.1l3.101-0.093C312.443,3.832,307.083,3.68,307.306,3.778z"/>
	<path fill="#046060" d="M247.664,2.03c-0.298,0.095,1.607,0.275,1.964,0.401l3.531-0.081C251.344,2.27,247.905,2.178,247.664,2.03z
		"/>
	<path fill="#046060" d="M249.627,2.432l-5.282,0.129C249.063,2.614,249.926,2.541,249.627,2.432z"/>
	<polygon fill="#046060" points="272.056,3.235 280.735,2.985 270.384,3.23 	"/>
	<polygon fill="#046060" points="227.487,1.829 230.482,1.612 225.148,1.936 	"/>
	<path fill="#046060" d="M214.105,1.758c2.215-0.194-3.039-0.393-0.696-0.503c-3.636,0-6.74,0.161-9.534,0.309
		C206.843,1.492,210.009,1.546,214.105,1.758z"/>
	<path fill="#046060" d="M199.181,1.779c1.483-0.043,3.021-0.127,4.693-0.215C202.296,1.602,200.745,1.664,199.181,1.779z"/>
	<path fill="#046060" d="M235.346,2.448c-0.408-0.065-1.195-0.234-4.157-0.329l2.076,0.31
		C233.899,2.435,234.617,2.441,235.346,2.448z"/>
	<path fill="#046060" d="M233.338,2.439l-0.073-0.01c-2.255-0.024-3.818-0.041-4.488-0.048
		C229.352,2.389,230.726,2.406,233.338,2.439z"/>
	<path fill="#046060" d="M235.871,2.453c-0.193-0.002-0.335-0.003-0.524-0.005C235.546,2.478,235.667,2.488,235.871,2.453z"/>
	<path fill="#046060" d="M258.208,2.928c-3.104,0.125-9.574,0.264-3.312,0.515C257.123,3.271,253.538,3.124,258.208,2.928z"/>
	<path fill="#046060" d="M238.45,2.83l5.611,0.096c-0.109-0.074-1.122-0.189,0.415-0.257L238.45,2.83z"/>
	<polygon fill="#046060" points="235.703,2.907 238.45,2.83 236.37,2.793 	"/>
	<path fill="#046060" d="M208.792,2.152c-2.423,0.125-5.075,0.122-8.069,0.126c3.209,0.084,6.528,0.136,9.68,0.153
		C210.848,2.334,212.232,2.164,208.792,2.152z"/>
	<path fill="#046060" d="M220.721,2.319c-0.168,0.004-0.383,0.01-0.539,0.014C220.513,2.361,220.78,2.372,220.721,2.319z"/>
	<path fill="#046060" d="M171.236,2.114c0.164,0.023,0.307,0.044,0.474,0.067c0.037-0.021,0.062-0.041,0.109-0.061L171.236,2.114z"
		/>
	<path fill="#046060" d="M210.943,2.495c2.411,0.075,3.854,0.005,5.228-0.083c-1.804,0.006-3.716,0.013-5.768,0.02
		C210.203,2.476,210.167,2.506,210.943,2.495z"/>
	<path fill="#046060" d="M190.954,1.878c1.257,0.08,2.682,0.148,4.179,0.212C193.905,1.978,191.399,1.793,190.954,1.878z"/>
	<path fill="#046060" d="M219.37,2.242c0.12-0.003,0.229-0.007,0.36-0.011C218.94,2.159,219.038,2.192,219.37,2.242z"/>
	<path fill="#046060" d="M219.37,2.242c-1.242,0.036-2.219,0.107-3.199,0.169c1.469-0.016,2.831-0.041,4.012-0.078
		C219.883,2.31,219.584,2.274,219.37,2.242z"/>
	<path fill="#046060" d="M162.303,4.428c0.426-0.345,6.77-0.648,12.246-0.291c5.388-0.248,1.865-1.316-2.838-1.956
		c-0.167,0.145-0.167,0.277-5.713,0.454c1.942,0.195,12.304,0.465,7.626,0.751c-7.345,0.158-6.019-0.129-9.59-0.317
		c3.035,0.425-9.345,0.602-7.746,1.24l6.441-0.223C162.849,4.184,160.514,4.34,162.303,4.428z"/>
	<path fill="#046060" d="M182.276,2.268l2.281-0.027c-2.602-0.071-4.463-0.209-7.892-0.487c-3.796,0.137-4.583,0.257-4.846,0.367
		l11.236,0.104L182.276,2.268z"/>
	<path fill="#046060" d="M194.802,2.294c-1.782,0.328-7.262,0.456-3.906,0.839c6.697-0.004,4.693-0.27,8.693-0.398
		c-10.807,0.034,3.104-0.171-4.703-0.402c2.124-0.046,4.033-0.052,5.837-0.055c-1.945-0.065-3.821-0.128-5.59-0.188
		c0.099,0.009,0.168,0.015,0.248,0.022l0.051-0.001c0,0.002-0.011,0.003-0.011,0.005c0.467,0.045,0.619,0.072,0.095,0.044
		c-0.036,0.001-0.167,0.004-0.226,0.005c-0.073,0.047-0.273,0.087-0.488,0.125c-3.13-0.087-0.492-0.091,0.488-0.125
		c0.036-0.016,0.12-0.031,0.131-0.049c-0.011-0.001-0.025-0.003-0.04-0.004l-10.825,0.127
		C186.848,2.301,189.716,2.306,194.802,2.294z"/>
	<path fill="#046060" d="M249.122,4.018c-0.335-0.024-0.321-0.044-0.347-0.064C248.076,3.986,247.81,4.01,249.122,4.018z"/>
	<path fill="#046060" d="M244.669,3.846c0.787-0.039,1.442-0.149,4-0.116c2.219,0.086-0.011,0.132,0.105,0.223
		c1.542-0.074,5.396-0.188,0.562-0.331l-0.766,0.036c-4.357-0.101-9.957-0.479-9.195-0.517
		C240.647,3.405,241.769,3.593,244.669,3.846z"/>
	<path fill="#046060" d="M219.424,3.208l-9.014,0.128l4.591,0.287l-0.233-0.166C219.894,3.534,218.787,3.331,219.424,3.208z"/>
	<polygon fill="#046060" points="170.205,1.928 171.4,1.552 166.194,2.064 	"/>
	<polygon fill="#046060" points="158.492,1.912 158.925,1.57 155.832,1.76 	"/>
	<path fill="#046060" d="M132.792,381.386l2.649-0.031C134.188,381.37,133.382,381.379,132.792,381.386z"/>
	<path fill="#046060" d="M113.616,381.345l-0.47,0.062C114.035,381.374,114.4,381.349,113.616,381.345z"/>
	<path fill="#046060" d="M1.624,137.441c-0.364,3.858-0.923,8.168-0.478,7.702l0.431-1.184
		C1.492,141.263,1.534,139.197,1.624,137.441z"/>
	<path fill="#046060" d="M4.208,334.463c0.03-0.367,0.061-0.75,0.091-1.129c-0.104-0.937-0.201-1.817-0.288-2.605
		C4.071,331.852,4.138,333.126,4.208,334.463z"/>
	<path fill="#046060" d="M5.427,337.185l-0.214,5.087C5.284,341.127,5.354,339.492,5.427,337.185z"/>
	<path fill="#046060" d="M237.517,380.973l3.09-0.203C235.772,380.811,237.9,380.882,237.517,380.973z"/>
	<path fill="#046060" d="M38.522,1.627c-3.33-0.185-5.979-0.264-8.307-0.291C34.227,1.606,37.462,2.002,38.522,1.627z"/>
	<path fill="#046060" d="M125.246,382.803c1.621-0.027,2.313-0.055,2.266-0.085C125.844,382.744,124.9,382.77,125.246,382.803z"/>
	<path fill="#046060" d="M20.601,1.318c0.587,0.037,1.162,0.074,1.76,0.111c2.434-0.072,4.882-0.129,7.855-0.094
		C27.254,1.135,23.862,1.006,20.601,1.318z"/>
	<path fill="#046060" d="M380.458,146.932c0.014-0.277,0.029-0.608,0.041-0.86C380.46,145.988,380.456,146.371,380.458,146.932z"/>
	<path fill="#046060" d="M382.674,36.282c0.012,1.09,0.032,2.868,0.051,4.543C382.716,40.009,382.701,38.64,382.674,36.282z"/>
	<path fill="#046060" d="M111.361,1.513C113.846,1.497,111.754,1.469,111.361,1.513L111.361,1.513z"/>
	<path fill="#046060" d="M123.442,3.169c-0.528,0.045-0.929,0.102-0.991,0.196C122.656,3.268,123.002,3.206,123.442,3.169z"/>
	<path fill="#046060" d="M4.209,12.396c-0.001,0.073-0.001,0.131-0.002,0.215C4.299,11.872,4.281,11.999,4.209,12.396z"/>
	<path fill="#046060" d="M115.099,1.716c-0.933-0.054-2.007-0.101-3.177-0.136C112.436,1.615,113.401,1.659,115.099,1.716z"/>
	<path fill="#046060" d="M114.597,1.52c0.856,0.02,1.53,0.035,2.171,0.049C117.081,1.502,116.804,1.458,114.597,1.52z"/>
	<path fill="#046060" d="M107.9,1.521c1.421,0,2.747,0.025,4.022,0.06c-0.488-0.03-0.692-0.054-0.561-0.067
		C110.632,1.515,109.605,1.517,107.9,1.521z"/>
	<path fill="#046060" d="M380.979,350.432c0.011-0.163,0.023-0.353,0.035-0.531C380.851,347.394,380.877,348.495,380.979,350.432z"
		/>
	<path fill="#046060" d="M6.023,202.1c-0.008-0.116-0.012-0.179-0.019-0.284c-0.005,0.116-0.011,0.262-0.015,0.368L6.023,202.1z"/>
	<path fill="#046060" d="M6.3,211.022c-0.489-3.8-0.425-5.96-0.311-8.838l-1.171,2.95L6.3,211.022z"/>
	<path fill="#046060" d="M178.705,381.341l-6.267-0.11c7.564-0.204,13.036-0.162,7.152-0.312c-0.886,0.43-24.356,0.081-25.227,0.483
		l-4.131-0.087c1.184-0.007,1.374-0.009,2.543-0.016c-8.034-0.198-5.968,0.295-16.319,0.229c-3.607-0.033-6.125-0.098-3.665-0.144
		l-8.037,0.093c-2.339-0.011-1.767-0.084,0.561-0.072l-12.26,0.013l0.091-0.013c-1.755,0.047-5.715,0.153-7.647,0.206
		c-3.115-0.069,1.563-0.045,0.765-0.102l-6.788,0.096c-2.766-0.126,2.86-0.224,7.549-0.196c-6.339-0.465-5.632,0.104-19.313-0.213
		l6.409-0.034c-4.131-0.283-9.134-0.208-16.38-0.429c1.719,0.113,14.508,0.507,7.141,0.596c-2.077-0.043-4.813-0.074-8.788,0.013
		c-0.037-0.179-3.917-0.153-8.773-0.165l0.332-0.246c-5.25,0.041-4.834,0.171-7.924,0.271c-5.851-0.052-7.064-0.269-8.441-0.455
		c-9.371-0.109,6.47,0.377-4.62,0.36c-7.793-0.147-13.266-0.078-22.589,0.063c-5.454-0.139,0.955-0.188-1.002-0.289l-4.834,0.226
		c-1.184-0.013-0.802-0.091-0.609-0.13c-4.073,0.077-0.335,0.323-6.74,0.387c-0.432,0.092-1.469,0.101-2.907,0.068
		c-0.359-0.01-0.744-0.021-1.15-0.032c-0.197-0.006-0.399-0.014-0.606-0.021c-0.137-0.008-0.276-0.016-0.419-0.023
		c-0.271-0.018-0.553-0.035-0.844-0.054c-0.01-0.287,0.028-0.618,0.04-0.92c0.009-0.166,0.019-0.334,0.027-0.504
		c0.01-0.26,0.019-0.521,0.029-0.786c0.018-0.528,0.036-1.066,0.054-1.609c0.026-1.088,0.053-2.197,0.08-3.303
		c0.034-2.213,0.023-4.413-0.085-6.396c0.118-1.952,0.227,0.944,0.375,0.347c-0.247-10.876-0.165-9.323-0.576-18.254l0.305-7.606
		c-0.34,5.589-0.681-1.553-1.005-7.809c-0.16,1.982-0.295,3.677-0.359,4.813l-0.253-9.983c0.071-1.206,0.229-0.2,0.416,1.436
		c-0.041-0.681-0.079-1.325-0.109-1.829c0.164-3.57,0.43-1.72,0.675,0.839c-0.094,1.216-0.188,2.422-0.279,3.596
		c0.268,2.467,0.551,4.772,0.806,4.259c-0.047-0.648-0.086-1.898-0.105-3.271c0.07,0.645,0.133,1.057,0.178,0.758
		c0.047-0.339-0.044-1.381-0.152-3.014l0.507-2.27l-0.196-0.55l0.388-13.062c-0.473-9.346-1.275-17.474-1.517-32.306
		c0.422,3.68,0.691,0.79,1.195,0.99c-0.539,4.048,0.187,11.488,0.042,19.176c0.069-4.012,0.296-3.13,0.37-2.109l-0.411-13.711
		c0.406,0.311,0.318-2.91,0.504-6.492c-0.827,2.707-0.513-10.22-0.76-15.798c0.287-0.346,0.574,0.991,0.482,7.797
		c0.665-7.509-0.966-9.702-0.409-17.072c0.003,1.661-0.042,2.558,0.103,3.213c-0.249-3.88-0.027-13.371,0.227-11.138l0.002,1.658
		c0.133-11.032,0.082-33.585-0.702-35.231c0.102-0.109,0.94,1.446,1.095,2.113l-2.643-19.686c0.682,1.734,2.332-4.922,2.699,4.227
		c0.103-2.627,0.228-5.877-0.003-11.415c-0.104,1.792-1.007,4.467-1.067,2.019c0.781-6.722,0.417-4.667,1.098-12.952
		c-0.156,2.685-1.25-0.299-1.213-4.543c0.165,0.663,1.094-0.354,1.206,1.199l-1.075-10.566c0.195,2.638,0.93,0.466,1.248-1.898
		c-0.219,1.097,0.042-9.134-0.061-11.951l-0.269,4.478c0.198-11.929-1.56-11.783-1.5-23.617c0.237,1.432,1.444,3.538,1.601-2.481
		c-0.574-2.758-2.822-12.212-3.305-22.684l0.34-2.007l-0.401-8.034c0.923,5.002,2.818,19.04,3.521,26.706
		c0.277-4.463,0.401-1.242,0.387-7.928c0.326-2.361,0.474,3.644,0.486,5.611l0.25-15.564c-0.702,0.692-0.677-11.903-1.27-11.309
		l0.697,16.905c-0.693,0.685-1.969-9.775-1.845-20.804c0.284-2.806,1.26,2.099,1.496,1.869c-0.241-1.432-0.453-10.468-0.278-11.48
		l0.375,4.678c0.28-6.139-0.935-10.02-0.245-17.397c0.048-2.546,0.935-7.604,0.508-8.044c-0.826,4.153-3.363,4.966-3.981,2.197
		c0.054-0.893,0.782-13.372,1.19-16.279c0.648-4.193,1.54,6.296,2.096,2.725c-0.197-0.153-0.44-2.47-0.518-3.436
		c0.169-2.674,0.612,1.107,0.523-4.704c-0.733-0.969,0.062-11.819-0.62-2.747c-0.21-5.684,0.151-6.041,0.118-12.715
		c-0.474,2.124-1.613-5.994-1.82-11.688c0.186,0.335,0.428-0.944,0.539-1.563c0.033-2.86,0.062-5.39,0.089-7.742l0.003-0.212
		l0.002-0.105C4.301,4.3,4.298,4.261,4.349,4.276l0.432,0.008C5.066,4.29,5.349,4.295,5.629,4.3C6.184,4.312,6.73,4.323,7.27,4.334
		c1.107,0.023,2.19,0.046,3.266,0.069c4.378,0.091,8.658,0.174,14.091,0.175c1.002,0.175,6.245,0.382,4.011,0.692
		c1.563-0.128,2.999-0.373,6.351-0.392c6.485,0.613-7.473,0.102-2.529,0.842c0.423-0.417,8.668-0.583,13.44-0.843
		C44.432,4.242,34.872,4.76,30.092,5.024c-0.022-0.889,8.3-1.82,19.656-2.207c9.024-0.205,3.913,0.566,5.479,0.445
		C72.18,3.423,69.67,1.786,83.748,2.431c5.585,0.545,0.251,1.063,1.49,1.45c-7.353,0.202-11.288-0.346-16.271-0.329l6.135,0.26
		c-2.339,0.178-7.247,0.316-9.921,0.158c4.682,0.488,28.641,0.099,41.72,0.525c2.325-0.175,6.336-0.353,4.438-0.559L107.2,4.007
		c-3.804-0.42,7.79-0.568,2.551-0.766c5.552-0.287,11.775-0.716,19.59-0.468l1.468,0.568c-0.167-0.165-5.108-0.347-7.305-0.177
		c3.257-0.241,11.983,0.779,15.554,0.053l-5.479-0.399c5.574-0.27,12.464-0.825,19.39-0.621c-3.152-0.549-1.596,0.056-6.518-0.598
		c4.266,0.808-17.718-0.119-10.865,0.754c-5.05-0.774-8.74-0.351-15.342-1.038c0.204,0.191,2.339,0.374-3.476,0.253
		c-0.263,0.055-0.882,0.123-1.275,0.163c-0.178-0.007-0.24-0.01-0.394-0.016c0.117,0.008,0.204,0.015,0.321,0.024
		c-0.251,0.027-0.273,0.034,0.12,0.008c1.384,0.089,2.507,0.194,2.962,0.302c-2.885,0.426-12.132,0.39-15.258,0.614
		c-3.45-0.102,1.443-0.221-0.441-0.434l-4.671,0.336c-0.462-0.437-9.167-0.758-1.038-0.987l-7.316-0.046
		C85.471,1.27,79.547,1.141,75.893,1.32c-3.45-0.11-8.715,0.474-5.709,0.128L58.71,1.697l-0.105-0.116
		C47.285,1.488,35.302,2.304,22.361,1.43c-3.813,0.112-7.746,0.255-14.13,0.112L6.078,1.125c-1.054,0.006-2.24,0.013-3.516,0.021
		c-0.32,0-0.646-0.001-0.977-0.002l-0.25-0.001c-0.063,0.021-0.22-0.053-0.18,0.07L1.153,1.715C1.149,2.391,1.145,3.084,1.141,3.79
		C1.127,5.21,1.113,6.677,1.099,8.15C1.08,9.006,1.061,9.866,1.042,10.703c-0.07,3.325-0.105,6.3,0.112,7.352
		c-1.13,5.279-0.256,23.748-0.446,32.353l0.545,0.324c-0.026,5.924,0.13,11.604,0.358,18.957l0.478-0.452
		c0.396,6.339-0.323,16.297-0.256,26.323c-0.181-0.681-0.138-3.224-0.032-5.024c-1.038,11.979,0.813,25.274,0.072,36.139
		c0.173,2.707,0.12,4.667,0.01,6.565c-0.001-0.251-0.011-0.477-0.025-0.67c-0.001,0.277-0.002,0.689-0.003,1.111
		c-0.074,1.195-0.15,2.427-0.232,3.76c0.107-1.133,0.195-2.219,0.235-3.163c0.015,2.087,0.079,5.254,0.198,8.358l-0.48,1.323
		c0.005,0.251,0.01,0.455,0.016,0.717c-0.169,3.046,0.234,2.449,0.594,0.824c0.082,1.563,0.18,2.995,0.298,4.106
		c-0.767,2.474,0.275,8.143-0.535,11.521c0.403,2.091,0.338,15.604,1.158,17.259c-0.107,0.105-0.156,1.02-0.165-0.656
		c-0.089,3.461-0.174,6.919,0.059,10.023l-0.58,1.468l0.791,7.557c-0.346,4.591-0.541,6.492-0.994,1.935
		c0.701,11.007,0.277,8.93,0.953,18.29l-0.364-0.456c0.021,3.345,0.51,8.693,0.216,10.712c-0.661,7.483-0.04,37.031-0.543,56.243
		c0.93-3.728-0.383,8.93,0.345,9.691c-0.215,1.118-0.322,3.796-0.528,0.685c0.261,9.805-0.245,14.73,0.363,21.5
		c-0.198,1.122-0.312-2.099-0.427-1.101c0.05,0.787,0.197,3.115,0.083,4.135c-0.113,0.999-0.179-1.436-0.28-2.987
		c0.115,10.016,0.721,11.028,1.287,11.757c-0.251,5.076-0.192,7.607,0.17,11.273c-0.172,1.767-0.339,4.714-0.431-1.509
		c-0.017,3.501-0.137,21.387,0.258,21.744c-0.095,1.097-0.008,4.893,0.039,5.814c0,3.928,0,6.064,0,8.184
		c0.012,2.188,0.023,4.358,0.044,8.341l0.048-2.402c0.055,0.381,0.098,0.766,0.131,1.162c0.033,0.395,0.057,0.965,0.073,1.45
		c0.006,0.253,0.013,0.511,0.02,0.773l0.006,0.398l0.001,0.101c-0.008,0.042,0.001,0.066,0.048,0.055l0.207-0.002
		c0.552,0.002,1.128,0.004,1.734,0.006c1.031,0.013,2.165,0.026,3.441,0.043c1.238,0.013,2.614,0.02,4.169,0.003l-0.179,0.042
		c14.26,0.232,6.157-0.145,20.225,0.113l-0.765-0.222c1.312-0.476,12.464,0.249,20.628,0.042l-2.947-0.108
		c4.459-0.147,12.464,0.544,16.942,0.562c0.976,0.03-1.542,0.063-2.904,0.097c11.724,0.174,1.519-0.253,10.256-0.342
		c1.61,0.12-2.077,0.332,3.804,0.327c2.929,0.073,17.055-0.454,25.078-0.25c-1.767-0.081-3.523-0.165,0.536-0.238
		c6.219-0.037,16.814,0.282,22.432,0.02c0.791,0.021,1.089,0.042,1.122,0.062c4.754-0.072,15.452-0.12,18.315-0.255
		c2.197,0.249,9.586,0.185,16.414,0.123c3.415-0.022,6.688-0.044,9.1-0.06c2.413,0.005,3.966,0.046,3.94,0.163l14.625-0.004
		l-0.383,0.049c9.349,0.054,12.654-0.055,15.94-0.173c2.161,0.039,0.583,0.085,0.405,0.111c13.658,0.14,15.018,0.145,26.469-0.118
		l1.191,0.198c3.104-0.12,19.747,0.419,33.144,0.245c-0.131,0.026-0.408,0.071-1.472,0.098c7.536-0.098,16.558,0.128,24.385,0.297
		c7.827,0.167,14.461,0.262,17.223-0.279l9.946-0.234c-12.868-0.134,1.916-0.498-3.377-0.705c5.061-0.073,13.083,0.374,6.863,0.424
		l-0.973-0.062c-2.284,0.612,15.991,0.274,15.645,0.723c12.661,0.049,25.161,0.193,37.462,0.353
		c3.518,0.041,7.021,0.082,10.511,0.122l0.865,0.008c0.031-0.257,0.014-0.563,0.022-0.843l0.015-1.718l0.03-3.053
		c0.018-1.518,0.035-3.032,0.052-4.544c0.05-6.045,0.099-12.034,0.146-17.964l-0.646,2.732l0.051-8.273
		c0.153-2.172,0.514-2.915,0.472,2.987c0.377-3.104-0.288-9.899-0.432-10.066c0.282-11.557,0.754,4.514,0.774,0.969l-0.04-4.813
		l-0.078,1.085c-0.261-3.901-0.546-4.248-0.508-11.342c0.134-4.488,0.407-2.302,0.434-4.069c0.023,0.006,0.041-0.141,0.046-0.555
		c0.005-0.413-0.002-1.094-0.026-2.156l0.057-10.424l-0.52,4.168c-0.258-4.619,0.025-9.8-0.563-4.991
		c0.909-7.061,0.301-38.882,0.569-43.218c-0.379-6.471-0.375-12.857-0.344-20.771c-0.1,1.968-0.658,3.145-0.595-3.68
		c1.147,2.495,0.483-12.497,1.271-18.013c-0.518,4.929-0.184-19.401-0.904-11.666c0.077-5.695,0.407-0.347,0.651-4.668
		c-0.448-13.553,0.166-29.868-0.057-46.62c-0.126-0.263-0.311,2.543-0.51-1.049l0.58-8.846c-0.08-3.308-0.709-3.046-0.322-9.09
		c-0.095,0.853-0.241,2.128-0.287-0.091c0.221-16.41,0.002-33.175-0.126-50.005c-0.15-16.83-0.178-33.723-0.099-50.388
		c-0.06,4.514-0.104,1.505-0.139-1.942c-0.005,2.241-0.133-0.051-0.2,0.39l0.067-13.954c-0.167-2.543-0.161-14.959-0.273-16.417
		l0.052,4.419c-0.137-5.877-0.259,8.223-0.493,7.363c0.069,3.29-0.013,7.627-0.125,12.492c-0.102,4.864-0.24,10.256-0.063,15.653
		c-0.084,2.383-0.094-2.033-0.179-0.758c0.118,2.736,0.139,6.041,0.027,12.166l-0.036-0.692c-0.069,17.204-0.29,24.582-0.586,43.91
		l0.272-1.432c-0.058,4.153-0.148,5.028-0.229,6.974c0.387,4.766,0.093-11.666,0.51-7.323c-0.579,5.509-0.125,29.289-0.846,33.013
		c-0.041,6.39,0.368-1.873,0.333,4.514l-0.206,1.694l0.248,1.614c-0.061,4.19-0.326,6.303-0.5,6.459
		c0.025-1.016-0.031-2.889-0.039-3.979c-0.276,5.433-0.011,15.317-0.098,17.182l0.164-6.139c0.113,17.438-0.282,38.729,0.153,55.577
		l0.185-1.279c0.311,12.865-0.226,10.304-0.1,24.429l-0.044-0.514c0.183,2.827,0.273,6.602,0.246,10.468
		c-0.217-3.567-0.45,6.711-0.689,2.033c0.354,13.95,0.285,6.9,0.999,16.114l-0.327,2.124c0.291,3.141,0.446,3.403,0.527,10.457
		c-0.277-5.786-0.504,4.503-0.869-1.979c-0.743,14.803,0.711,21.98-0.357,28.771c0.918,6.799,0.521-12.811,0.715-9.003
		c0.301-3.188,0.685,5.611,0.592,10.256c-0.02,4.729-1.188,8.041-1.166,19.937c0.004-1.184-0.065-1.264-0.063-2.444
		c-0.234,4.452,0.323,8.723-0.052,14.184c0.558,3.061-0.021,7.09,0.685,7.972l-0.174-10.912c0.192,6.187,1.019,11.987,0.629,22.178
		c-0.141-0.794-0.329-3.825-0.436-5.91c-0.201,2.98,0.145,5.739-0.061,8.828c-0.697-0.882-0.176-13.262-0.723-19.889
		c-0.291,3.198,0.532,12.537-0.235,9.207c0.974,4.787-0.087,11.721,0.662,19.775l-0.41-0.531c0.068,1.275,0.271,3.916,0.269,6.263
		l-0.543-4.248c0.12,1.63,0.158,3.231,0.153,4.813c-0.012,0.791-0.023,1.577-0.035,2.36l-0.033,1.172l-0.019,0.585l-0.009,0.186
		l-0.009,0.098l-0.065,0.702c0.04,0.155-0.128,0.104-0.25,0.095l-0.355-0.027l-0.332-0.018h-1.06
		c-0.777,0.006-1.556,0.023-2.338,0.058c1.478-0.002,2.627-0.003,3.517-0.004c0.293,0.009,0.516,0.025,0.689,0.048
		c0.071-0.003,0.193,0.057,0.189,0.006c0.013-0.033,0.027-0.055,0.043-0.064c0.031-0.02,0.068,0.007,0.107,0.059
		c0.08,0.102,0.17,0.326,0.256,0.399c0.085,0.066,0.166-0.025,0.228-0.725c0.517,1.522-0.976,1.011-1.645,1.129
		c-1.352,0.014-2.51,0-3.456-0.029c-1.911-0.061-3.133-0.192-4.414-0.332c-2.564-0.281-5.37-0.591-14.413-0.431
		c2.449-0.074,9.192,0.159,5.363,0.357c-3.442-0.058-7.989-0.166-10.103-0.338c-11.983,0.17,1.84,0.354-3.261,0.612
		c-4.081-0.404-5.885,0.215-11.139,0.372l-0.036-0.346c-13.655-0.121-3.621,0.726-15.914,0.53l5.195-0.482l-6.408,0.16l1.322-0.374
		c-6.974,0.328-9.145,0.266-15.977,0.229c1.589,0.197-0.893,0.545-6.94,0.581c-4.124-0.145,2.31-0.283-6.263-0.188
		c1.935-0.182,4.055-0.425,7.786-0.191c0.382-0.096,1.908-0.195,2.302-0.292c-4.44-0.156-11.163,0.061-14.267,0.087
		c1.194,0,2.623,0.001,3.355,0.033l-12.428,0.455c-1.957-0.082-0.404-0.167,1.133-0.254c-2.518,0.047-4.259,0.175-7.961,0.22
		c0.958-0.204,0.729-0.403,5.968-0.551l-11.841,0.323c-0.79-0.078-6.077-0.171-4.539-0.252c-6.565-0.029-16.104,0.479-24.809,0.402
		c-0.451,0.033-1.358,0.068-3.209,0.102c-8.18,0.009-15.427-0.115-25.121,0.116l-5.502-0.215c-7.593,0.084,7.447,0.271-5.195,0.401
		c-8.953,0.095-3.341-0.186-6.482-0.238c-4.452,0.131-12.19,0.367-20.414,0.199C174.03,381.363,176.162,381.353,178.705,381.341z
		 M85.06,381.334c1.814-0.031,5.432-0.125,6.758-0.022C89.752,381.497,88.153,381.402,85.06,381.334z M4.884,320.677
		c0.112,1.348,0.047,3.436-0.088,5.789C4.772,324.757,4.789,322.823,4.884,320.677z M84.13,1.793
		C84.054,1.803,84,1.809,83.938,1.816C79.89,1.616,81.325,1.694,84.13,1.793z M92.536,2.027c0.845-0.063,0.787-0.129,0.43-0.197
		c-0.587,0.118-2.474,0.121-4.624,0.08C88.94,2.037,90.025,2.126,92.536,2.027z M383.881,323.898l-0.114,1.636
		C383.644,321.839,383.756,322.875,383.881,323.898z"/>
	<path fill="#046060" d="M5.288,336.817c-0.058,0.514-0.12,0.656-0.182,0.776C5.158,338.307,5.221,338.322,5.288,336.817z"/>
	<path fill="#046060" d="M236.945,381.01h0.284c0.157-0.013,0.241-0.025,0.288-0.037L236.945,381.01z"/>
	<path fill="#046060" d="M6.256,45.912c-0.075,1.731-0.171,2.696-0.269,3.337C6.114,49.344,6.221,48.557,6.256,45.912z"/>
	<path fill="#046060" d="M137.076,1.436l-5.385,0.086c2.605-0.009,3.534,0.093,4.849,0.169
		C136.42,1.588,135.393,1.434,137.076,1.436z"/>
	<path fill="#046060" d="M183.806,4.146c0.787-0.048,1.668-0.005,2.445-0.054l-0.215-0.181
		C182.684,3.92,180.341,4.069,183.806,4.146z"/>
	<path fill="#046060" d="M142.06,2.906c0.426,0.367,3.804,0.248,7.575,0.19c-0.226,0-0.441-0.001-0.667-0.001
		C150.079,2.594,146.061,2.748,142.06,2.906z"/>
	<path fill="#046060" d="M150.509,3.086c1.162-0.014,2.35-0.021,3.487-0.001C154.437,2.887,152.583,3.04,150.509,3.086z"/>
	<path fill="#046060" d="M103.196,1.8c1.789,0.107,1.122-0.496,2.135-0.333C107.328,0.976,93.407,2.025,103.196,1.8z"/>
	<polygon fill="#046060" points="145.113,4.109 143.762,3.66 141.648,4.021 	"/>
	<path fill="#046060" d="M115.336,3.761l6.026,0.134c-0.091-0.079,0.674-0.125,1.614-0.159
		C119.264,3.718,115.194,3.62,115.336,3.761z"/>
	<path fill="#046060" d="M122.976,3.735c1.935,0.011,3.775,0.001,4.85-0.073C126.78,3.666,124.528,3.68,122.976,3.735z"/>
	<polygon fill="#046060" points="136.875,4.246 135.094,4.151 130.838,4.118 	"/>
	<path fill="#046060" d="M50.557,3.629L43.98,3.775c-0.67,0.179,1.122,0.288,3.57,0.217C49.125,3.869,51.566,3.801,50.557,3.629z"/>
	<path fill="#046060" d="M70.446,5.027c-1.778-0.104-1.898-0.217-2.9-0.383l-0.2,0.63L70.446,5.027z"/>
	<path fill="#046060" d="M51.267,5.196c-0.656,0.178-9.545,0.525-1.209,0.473C50.725,5.491,57.312,5.336,51.267,5.196z"/>
	<polygon fill="#046060" points="4.424,56.081 4.416,54.408 3.323,54.648 	"/>
	<path fill="#046060" d="M6.852,143.423c0.269-7.793-0.628-1.851-0.302-8.894c-0.24-1.829-0.265,5.756-0.471,3.88
		C6.325,143.113,6.174,145.583,6.852,143.423z"/>
	<path fill="#046060" d="M6.079,138.41c-0.047-0.753-0.098-1.551-0.151-2.401C5.989,137.372,6.037,138.013,6.079,138.41z"/>
	<polygon fill="#046060" points="382.59,17.923 382.553,12.91 382.543,16.146 	"/>
	<path fill="#046060" d="M382.356,8.301l0.065-1.181l-0.104-3.009C382.328,5.244,382.348,7.43,382.356,8.301z"/>
	<path fill="#046060" d="M71.138,380.784l-0.382,0.058c0.776,0.068,1.949,0.081,4.299,0.104L71.138,380.784z"/>
	<polygon fill="#046060" points="139.105,381.2 137.936,381.194 140.122,381.375 	"/>
	<path fill="#046060" d="M196.15,380.889c-2.328,0.019-5.064,0.04-7.403,0.058C193.822,380.891,196.781,381.125,196.15,380.889z"/>
</g>
</svg>
